<?xml version="1.0" encoding="utf-8"?>
<!-- Generator: Adobe Illustrator 15.0.2, SVG Export Plug-In . SVG Version: 6.00 Build 0)  -->
<!DOCTYPE svg PUBLIC "-//W3C//DTD SVG 1.1//EN" "http://www.w3.org/Graphics/SVG/1.1/DTD/svg11.dtd">
<svg version="1.1" xmlns="http://www.w3.org/2000/svg" xmlns:xlink="http://www.w3.org/1999/xlink" x="0px" y="0px" width="670px"
	 height="417.616px" viewBox="-22.398 15.229 670 417.616" enable-background="new -22.398 15.229 670 417.616"
	 xml:space="preserve">
<g id="Layer_1" display="none">
	<title>Layer 1</title>
	<path id="rect3225" display="inline" fill="#FFFFFF" stroke="#000000" stroke-linecap="round" stroke-linejoin="round" d="
		M145.051,82.205c-4.226,0-7.566,3.427-7.566,7.652v201.283c0,4.226,3.341,7.567,7.566,7.567h335.07
		c4.226,0,7.651-3.342,7.651-7.567V89.857c0-4.226-3.426-7.652-7.651-7.652H334.824c-0.75,1.236-2.142,2.063-3.698,2.063h-39.379
		c-1.552,0-2.861-0.833-3.611-2.063H145.051z"/>
	<path id="rect3318" display="inline" fill="#FFFFFF" stroke="#000000" stroke-linecap="round" stroke-linejoin="round" d="
		M158.407,99.514h308.391c1.98,0,3.586,1.552,3.586,3.465v181.497c0,1.914-1.605,3.466-3.586,3.466H158.407
		c-1.981,0-3.586-1.552-3.586-3.466V102.979C154.821,101.066,156.426,99.514,158.407,99.514z"/>
	<path id="path3206" display="inline" fill="#FFFFFF" stroke="#000000" d="M13.856,144.078
		C-1.25,226.8-11.102,315.289-18.513,354.12c-11.625,60.909,90.165,112.111,128.759,41.721
		c29.299-53.438,62.581-121.565,62.581-121.565L13.856,144.078z"/>
	<path id="path3258" display="inline" fill="#FFFFFF" stroke="#000000" d="M461.168,43.38h91.208l-7.146-11.753
		c-4.687-7.705-16.87-13.424-38.457-13.424c-21.586,0-33.771,5.719-38.456,13.424L461.168,43.38z"/>
	<path id="path3234" display="inline" fill="#FFFFFF" stroke="#000000" d="M69.496,43.38h91.209l-7.148-11.753
		c-4.686-7.705-16.87-13.424-38.457-13.424c-21.587,0-33.77,5.719-38.456,13.424L69.496,43.38z"/>
	<path id="path3229" display="inline" fill="#FFFFFF" stroke="#000000" d="M172.467,98.048c-4.675-30.211-6.833-45.318-8.991-56.467
		c-2.158-11.149-21.22-16.904-48.375-16.904c-27.154,0-46.216,5.754-48.375,16.904c-2.158,11.149-4.316,26.255-8.992,56.467"/>
	<path id="path2416" display="inline" fill="#FFFFFF" stroke="#000000" stroke-linecap="round" stroke-linejoin="round" d="
		M219.583,169.974c0,57.604-46.698,104.302-104.302,104.302c-57.604,0-104.302-46.698-104.302-104.302
		c0-57.604,46.697-104.302,104.302-104.302C172.885,65.672,219.583,112.369,219.583,169.974z"/>
	<path id="path3260" display="inline" fill="#FFFFFF" stroke="#000000" d="M564.139,98.048c-4.677-30.211-6.834-45.318-8.992-56.467
		c-2.157-11.149-21.22-16.904-48.375-16.904c-27.153,0-46.216,5.754-48.373,16.904c-2.159,11.149-4.316,26.255-8.992,56.467"/>
	<path id="path3208" display="inline" fill="#FFFFFF" stroke="#000000" stroke-linecap="round" stroke-linejoin="round" d="
		M281.445,271.397c0,36.55-29.628,66.178-66.178,66.178c-36.549,0-66.178-29.628-66.178-66.178
		c0-36.549,29.629-66.177,66.178-66.177C251.816,205.22,281.445,234.849,281.445,271.397z"/>
	
		<path id="path3212" display="inline" fill="#FFFFFF" fill-opacity="0.5185" stroke="#000000" stroke-linecap="round" stroke-linejoin="round" d="
		M266.339,271.397c0,28.207-22.865,51.072-51.072,51.072s-51.072-22.865-51.072-51.072c0-28.206,22.866-51.071,51.072-51.071
		S266.339,243.191,266.339,271.397z"/>
	<path id="path3223" display="inline" fill="#FFFFFF" stroke="#000000" d="M611.287,144.078
		c15.104,82.722,24.956,172.649,32.369,210.042c12.055,60.826-90.166,112.111-128.759,41.721
		c-29.3-53.438-62.582-121.565-62.582-121.565L611.287,144.078z"/>
	<path id="path3221" display="inline" fill="#FFFFFF" stroke="#000000" stroke-linecap="round" stroke-linejoin="round" d="
		M405.561,169.974c0,57.604,46.697,104.302,104.301,104.302s104.303-46.698,104.303-104.302
		c0-57.604-46.699-104.302-104.303-104.302S405.561,112.369,405.561,169.974z"/>
	<path id="path3219" display="inline" fill="#FFFFFF" stroke="#000000" stroke-linecap="round" stroke-linejoin="round" d="
		M488.452,92.891c-4.226,0-7.651,3.426-7.651,7.652v40.325h-40.413c-4.225,0-7.564,3.426-7.564,7.652v42.904
		c0,4.227,3.34,7.653,7.564,7.653h40.413v40.326c0,4.226,3.426,7.651,7.651,7.651h42.903c4.228,0,7.567-3.425,7.567-7.651v-40.326
		h40.412c4.226,0,7.567-3.426,7.567-7.653v-42.904c0-4.226-3.342-7.652-7.567-7.652h-40.412v-40.325c0-4.226-3.34-7.652-7.567-7.652
		H488.452z"/>
	<path id="rect3236" display="inline" fill="#FFFFFF" stroke="#000000" stroke-linecap="round" stroke-linejoin="round" d="
		M237.437,171.424h27.952c1.121,0,2.029,0.909,2.029,2.029v14.285c0,1.12-0.908,2.029-2.029,2.029h-27.952
		c-1.121,0-2.029-0.909-2.029-2.029v-14.285C235.408,172.333,236.316,171.424,237.437,171.424z"/>
	<path id="rect3238" display="inline" fill="#FFFFFF" stroke="#000000" stroke-linecap="round" stroke-linejoin="round" d="
		M383.229,180.596l-23.378,9.172c-2.226,0.873-4.316-1.925-4.316-4.316v-9.712c0-2.391,2.091-5.188,4.316-4.316L383.229,180.596z"/>
	<path id="path3242" display="inline" fill="#FFFFFF" stroke="#000000" stroke-linecap="round" stroke-linejoin="round" d="
		M337.085,229.317c0,12.057-9.774,21.832-21.832,21.832s-21.832-9.774-21.832-21.832c0-12.056,9.774-21.831,21.832-21.831
		S337.085,217.261,337.085,229.317z"/>
	<path id="path3244" display="inline" fill="#FFFFFF" stroke="#000000" stroke-linecap="round" stroke-linejoin="round" d="
		M532.52,121.419c0,12.513-10.144,22.658-22.658,22.658c-12.514,0-22.658-10.145-22.658-22.658
		c0-12.515,10.145-22.659,22.658-22.659C522.376,98.76,532.52,108.905,532.52,121.419z"/>
	<path id="path3246" display="inline" fill="#FFFFFF" stroke="#000000" stroke-linecap="round" stroke-linejoin="round" d="
		M532.52,218.888c0,12.514-10.144,22.658-22.658,22.658c-12.514,0-22.658-10.144-22.658-22.658
		c0-12.514,10.145-22.659,22.658-22.659C522.376,196.229,532.52,206.374,532.52,218.888z"/>
	<path id="path3248" display="inline" fill="#FFFFFF" stroke="#000000" stroke-linecap="round" stroke-linejoin="round" d="
		M535.937,170.153c0-12.514,10.146-22.658,22.659-22.658s22.658,10.144,22.658,22.658c0,12.515-10.145,22.659-22.658,22.659
		S535.937,182.667,535.937,170.153z"/>
	<path id="path3250" display="inline" fill="#FFFFFF" stroke="#000000" stroke-linecap="round" stroke-linejoin="round" d="
		M438.469,170.153c0-12.514,10.145-22.658,22.658-22.658s22.66,10.144,22.66,22.658c0,12.515-10.146,22.659-22.66,22.659
		S438.469,182.667,438.469,170.153z"/>
	<path id="rect3214" display="inline" fill="#FFFFFF" stroke="#000000" stroke-linecap="round" stroke-linejoin="round" d="
		M93.379,91.564c-4.226,0-7.652,3.427-7.652,7.652v40.326H45.315c-4.226,0-7.566,3.427-7.566,7.652V190.1
		c0,4.225,3.341,7.651,7.566,7.651h40.412v40.326c0,4.226,3.427,7.653,7.652,7.653h42.905c4.226,0,7.566-3.427,7.566-7.653v-40.326
		h40.411c4.226,0,7.566-3.426,7.566-7.651v-42.905c0-4.226-3.341-7.652-7.566-7.652h-40.411V99.216c0-4.226-3.34-7.652-7.566-7.652
		H93.379z"/>
	<path id="path3289" display="inline" fill="#FFFFFF" stroke="#000000" stroke-linecap="round" stroke-linejoin="round" d="
		M474.224,271.397c0,36.55-29.629,66.178-66.178,66.178c-36.55,0-66.178-29.628-66.178-66.178c0-36.549,29.628-66.177,66.178-66.177
		C444.595,205.22,474.224,234.849,474.224,271.397z"/>
	
		<path id="path3291" display="inline" fill="#FFFFFF" fill-opacity="0.5185" stroke="#000000" stroke-linecap="round" stroke-linejoin="round" d="
		M459.117,271.397c0,28.207-22.866,51.072-51.071,51.072c-28.207,0-51.073-22.865-51.073-51.072
		c0-28.206,22.866-51.071,51.073-51.071C436.251,220.326,459.117,243.191,459.117,271.397z"/>
	<g id="g5204" display="inline">
		<path id="path3322" fill="#FFFFFF" stroke="#000000" stroke-linecap="round" stroke-linejoin="round" d="M140.431,153.208
			c-0.922,0.079-1.768,0.548-2.321,1.29l-9.63,12.21c-0.897,1.166-0.897,2.789,0,3.954l9.63,12.295
			c0.611,0.81,1.565,1.288,2.579,1.29l22.355,0.086c0.869,0.007,1.703-0.335,2.317-0.95c0.614-0.614,0.956-1.449,0.95-2.317v-24.161
			c0.013-1.777-1.405-3.233-3.181-3.268l-22.355-0.43C140.661,153.203,140.546,153.203,140.431,153.208z"/>
		<path id="path3324" fill="#FFFFFF" stroke="#000000" stroke-linecap="round" stroke-linejoin="round" d="M89.146,152.964
			c0.923,0.079,1.768,0.548,2.322,1.289l9.63,12.21c0.896,1.166,0.896,2.789,0,3.955l-9.63,12.295
			c-0.611,0.81-1.566,1.287-2.579,1.29l-22.355,0.087c-0.869,0.006-1.703-0.336-2.318-0.951c-0.614-0.614-0.956-1.449-0.95-2.317
			v-24.161c-0.013-1.776,1.405-3.234,3.182-3.268l22.355-0.429C88.917,152.958,89.032,152.958,89.146,152.964z"/>
		<path id="path3332" fill="#FFFFFF" stroke="#000000" stroke-linecap="round" stroke-linejoin="round" d="M130.228,194.289
			c-0.08-0.922-0.549-1.768-1.29-2.321l-12.21-9.63c-1.166-0.897-2.789-0.897-3.955,0l-12.295,9.63
			c-0.809,0.611-1.287,1.565-1.29,2.579l-0.086,22.355c-0.006,0.869,0.336,1.703,0.95,2.317c0.614,0.614,1.449,0.956,2.317,0.95
			h24.16c1.777,0.013,3.233-1.405,3.268-3.181l0.431-22.355C130.232,194.519,130.232,194.404,130.228,194.289z"/>
		<path id="path3334" fill="#FFFFFF" stroke="#000000" stroke-linecap="round" stroke-linejoin="round" d="M130.472,143.004
			c-0.079,0.922-0.549,1.768-1.29,2.322l-12.21,9.629c-1.167,0.897-2.789,0.897-3.955,0l-12.295-9.629
			c-0.809-0.611-1.287-1.566-1.29-2.579l-0.086-22.355c-0.006-0.869,0.336-1.704,0.95-2.318c0.615-0.614,1.449-0.956,2.318-0.95
			h24.161c1.776-0.013,3.233,1.405,3.267,3.181l0.43,22.355C130.478,142.775,130.478,142.889,130.472,143.004z"/>
	</g>
</g>
<g id="Layer_1_copy" display="none">
	<g display="inline">
		<path fill="#FFFFFF" d="M55.199,431.372c-22.9,0-46.461-11.285-61.488-29.45c-11.985-14.489-16.85-31.565-13.697-48.083
			c3.173-16.624,6.873-42.704,11.158-72.901c5.673-39.981,12.733-89.741,21.364-137.003c0.006-0.033,0.013-0.066,0.021-0.098
			c6.632-26.235,23.087-48.724,46.369-63.399l0.435-2.842c2.667-17.426,4.276-27.945,5.893-36.299
			c0.944-4.879,4.682-8.881,11.111-11.899c4.383-5.87,14.66-12.694,38.736-12.694c24.077,0,34.354,6.825,38.737,12.694
			c6.43,3.02,10.167,7.022,11.11,11.9c1.616,8.346,3.223,18.849,5.886,36.25l0.483,3.158h116.818c0.523,0,1.008,0.272,1.281,0.719
			c0.521,0.854,1.37,1.344,2.331,1.344h39.379c0.988,0,1.914-0.514,2.416-1.341c0.271-0.448,0.758-0.722,1.282-0.722h115.732
			l0.504-3.288c2.652-17.333,4.253-27.795,5.865-36.121c0.943-4.878,4.682-8.88,11.11-11.899
			c4.383-5.869,14.66-12.694,38.736-12.694s34.354,6.825,38.736,12.694c6.43,3.02,10.167,7.022,11.11,11.899
			c1.613,8.33,3.216,18.803,5.871,36.153l0.126,0.826c24.853,14.326,43.047,38.183,49.971,65.561
			c0.009,0.032,0.016,0.065,0.021,0.098c8.446,46.252,15.401,95.448,20.991,134.979c4.435,31.367,8.266,58.457,11.528,74.915
			c3.255,16.427-1.493,33.436-13.369,47.895c-15.013,18.276-38.668,29.63-61.735,29.63c-0.004,0-0.006,0-0.011,0
			c-24.091-0.003-44.132-12.359-56.431-34.791c-16.723-30.498-34.71-65.712-47.269-90.729
			c-12.172,20.577-34.241,33.242-58.268,33.242c-26.165,0-50.095-15.224-61.236-38.867h-70.307
			c-11.142,23.644-35.07,38.867-61.235,38.867c-23.212,0-44.901-12.046-57.256-31.614c-12.352,24.576-30.043,59.178-46.45,89.101
			C99.253,419.01,79.237,431.372,55.199,431.372z"/>
		<path d="M506.772,18.203c20.606,0,32.627,5.216,37.754,12.392c5.985,2.735,9.733,6.404,10.62,10.986
			c1.655,8.545,3.31,19.423,6.097,37.637c24.408,13.848,42.84,37.109,49.89,64.986c15.105,82.722,25.11,172.522,32.523,209.916
			c7.912,39.925-33.397,75.732-73.643,75.732c-21.07,0-41.854-9.823-55.116-34.012c-17.354-31.649-36.103-68.449-48.507-93.199
			c-11.158,20.792-33.098,34.934-58.345,34.934c-26.808,0-49.876-15.948-60.277-38.867h-72.225
			c-10.401,22.919-33.469,38.867-60.276,38.867c-24.543,0-45.95-13.371-57.376-33.217c-12.401,24.713-30.689,60.558-47.646,91.482
			c-13.271,24.205-34.011,34.031-55.047,34.031c-40.137,0-81.339-35.788-73.712-75.752c7.412-38.831,17.418-127.194,32.524-209.916
			c6.697-26.492,23.69-48.809,46.294-62.86c2.986-19.502,4.705-30.89,6.422-39.762c0.887-4.583,4.634-8.252,10.621-10.986
			c5.127-7.176,17.147-12.392,37.754-12.392s32.627,5.216,37.754,12.392c5.986,2.735,9.734,6.404,10.62,10.986
			c1.743,9.002,3.486,20.591,6.554,40.624h118.106c0.75,1.23,2.059,2.063,3.611,2.063h39.379c1.557,0,2.948-0.827,3.698-2.063
			h117.021c3.068-20.033,4.811-31.621,6.554-40.624c0.887-4.583,4.634-8.251,10.62-10.986
			C474.146,23.419,486.166,18.203,506.772,18.203 M506.772,15.203c-24.288,0-34.994,6.916-39.709,12.996
			c-6.683,3.218-10.587,7.526-11.61,12.813c-1.617,8.352-3.219,18.819-5.873,36.162l-0.311,2.031H334.824
			c-1.049,0-2.021,0.547-2.564,1.444c-0.229,0.376-0.674,0.619-1.134,0.619h-39.379c-0.582,0-0.908-0.392-1.05-0.625
			c-0.544-0.893-1.515-1.438-2.561-1.438H172.605l-0.287-1.877c-2.666-17.424-4.275-27.94-5.897-36.317
			c-1.022-5.286-4.927-9.594-11.61-12.812c-4.715-6.08-15.421-12.996-39.709-12.996c-24.288,0-34.994,6.916-39.709,12.996
			c-6.682,3.217-10.588,7.525-11.611,12.813c-1.622,8.38-3.232,18.904-5.901,36.341l-0.334,2.183
			c-23.304,14.888-39.772,37.541-46.444,63.933c-0.017,0.065-0.031,0.13-0.043,0.196C2.424,190.956-4.639,240.73-10.313,280.726
			c-4.282,30.179-7.98,56.243-11.146,72.832c-3.238,16.965,1.739,34.48,14.015,49.32c15.304,18.501,39.308,29.994,62.644,29.994
			c24.611,0,45.094-12.639,57.677-35.589c15.909-29.014,33.02-62.417,45.31-86.83c12.83,18.705,34.234,30.122,57.082,30.122
			c26.426,0,50.62-15.192,62.179-38.867h68.419c11.56,23.675,35.754,38.867,62.181,38.867c23.647,0,45.44-12.003,58.132-31.671
			c12.493,24.847,29.883,58.822,46.089,88.379c12.576,22.938,33.084,35.569,57.747,35.569c23.512,0,47.617-11.566,62.909-30.186
			c12.163-14.81,17.02-32.258,13.676-49.13c-3.255-16.419-7.082-43.489-11.514-74.835c-5.592-39.543-12.55-88.756-21.001-135.037
			c-0.012-0.066-0.026-0.131-0.043-0.196c-6.965-27.541-25.168-51.564-50.051-66.129l-0.019-0.124
			c-2.657-17.365-4.261-27.846-5.88-36.205c-1.022-5.286-4.928-9.593-11.61-12.812C541.767,22.119,531.061,15.203,506.772,15.203
			L506.772,15.203z"/>
	</g>
</g>
<g id="Layer_1_copy_2" display="none">
	<path id="rect3318_1_" display="inline" fill="#FFFFFF" stroke="#000000" d="M158.407,101h308.391c1.98,0,3.202,0.066,3.202,1.979
		v181.497c0,1.914-1.222,3.523-3.202,3.523H158.407c-1.981,0-4.407-1.609-4.407-3.523V102.979C154,101.066,156.426,101,158.407,101z
		"/>
	<path id="path3258_1_" display="inline" fill="#FFFFFF" stroke="#000000" d="M461.168,43.38h91.208l-7.146-11.753
		c-4.687-7.705-16.87-13.424-38.457-13.424c-21.586,0-33.771,5.719-38.456,13.424L461.168,43.38z"/>
	<path id="path3234_1_" display="inline" fill="#FFFFFF" stroke="#000000" d="M69.496,43.38h91.209l-7.148-11.753
		c-4.686-7.705-16.87-13.424-38.457-13.424c-21.587,0-33.77,5.719-38.456,13.424L69.496,43.38z"/>
	<path id="path3229_1_" display="inline" fill="#FFFFFF" stroke="#000000" d="M172.467,98.048
		c-4.675-30.211-6.833-45.318-8.991-56.467c-2.158-11.149-21.22-16.904-48.375-16.904c-27.154,0-46.216,5.754-48.375,16.904
		c-2.158,11.149-4.316,26.255-8.992,56.467"/>
	<path id="path3221_2_" display="inline" fill="#FFFFFF" stroke="#000000" stroke-linecap="round" stroke-linejoin="round" d="
		M10.979,169.974c0,57.604,46.697,104.302,104.301,104.302c57.604,0,104.302-46.698,104.302-104.302
		c0-57.604-46.699-104.302-104.302-104.302C57.677,65.672,10.979,112.369,10.979,169.974z"/>
	<path id="path3260_1_" display="inline" fill="#FFFFFF" stroke="#000000" d="M564.139,98.048
		c-4.677-30.211-6.834-45.318-8.992-56.467c-2.157-11.149-21.22-16.904-48.375-16.904c-27.153,0-46.216,5.754-48.373,16.904
		c-2.159,11.149-4.316,26.255-8.992,56.467"/>
	<path id="path3208_1_" display="inline" fill="#FFFFFF" stroke="#000000" stroke-linecap="round" stroke-linejoin="round" d="
		M281.445,271.397c0,36.55-29.628,66.178-66.178,66.178c-36.549,0-66.178-29.628-66.178-66.178
		c0-36.549,29.629-66.177,66.178-66.177C251.816,205.22,281.445,234.849,281.445,271.397z"/>
	
		<path id="path3212_1_" display="inline" fill="#FFFFFF" fill-opacity="0.5185" stroke="#000000" stroke-linecap="round" stroke-linejoin="round" d="
		M266.339,271.397c0,28.207-22.865,51.072-51.072,51.072s-51.072-22.865-51.072-51.072c0-28.206,22.866-51.071,51.072-51.071
		S266.339,243.191,266.339,271.397z"/>
	<path id="path3221_1_" display="inline" fill="#FFFFFF" stroke="#000000" stroke-linecap="round" stroke-linejoin="round" d="
		M405.561,169.974c0,57.604,46.697,104.302,104.301,104.302s104.303-46.698,104.303-104.302
		c0-57.604-46.699-104.302-104.303-104.302S405.561,112.369,405.561,169.974z"/>
	<path id="path3219_1_" display="inline" fill="#FFFFFF" stroke="#000000" stroke-linecap="round" stroke-linejoin="round" d="
		M488.452,92.891c-4.226,0-7.651,3.426-7.651,7.652v40.325h-40.413c-4.225,0-7.564,3.426-7.564,7.652v42.904
		c0,4.227,3.34,7.653,7.564,7.653h40.413v40.326c0,4.226,3.426,7.651,7.651,7.651h42.903c4.228,0,7.567-3.425,7.567-7.651v-40.326
		h40.412c4.226,0,7.567-3.426,7.567-7.653v-42.904c0-4.226-3.342-7.652-7.567-7.652h-40.412v-40.325c0-4.226-3.34-7.652-7.567-7.652
		H488.452z"/>
	<path id="rect3236_1_" display="inline" fill="#FFFFFF" stroke="#000000" stroke-linecap="round" stroke-linejoin="round" d="
		M237.437,171.424h27.952c1.121,0,2.029,0.909,2.029,2.029v14.285c0,1.12-0.908,2.029-2.029,2.029h-27.952
		c-1.121,0-2.029-0.909-2.029-2.029v-14.285C235.408,172.333,236.316,171.424,237.437,171.424z"/>
	<path id="rect3238_1_" display="inline" fill="#FFFFFF" stroke="#000000" stroke-linecap="round" stroke-linejoin="round" d="
		M383.229,180.596l-23.378,9.172c-2.226,0.873-4.316-1.925-4.316-4.316v-9.712c0-2.391,2.091-5.188,4.316-4.316L383.229,180.596z"/>
	<path id="path3242_1_" display="inline" fill="#FFFFFF" stroke="#000000" stroke-linecap="round" stroke-linejoin="round" d="
		M337.085,229.317c0,12.057-9.774,21.832-21.832,21.832s-21.832-9.774-21.832-21.832c0-12.056,9.774-21.831,21.832-21.831
		S337.085,217.261,337.085,229.317z"/>
	<path id="path3244_1_" display="inline" fill="#FFFFFF" stroke="#000000" stroke-linecap="round" stroke-linejoin="round" d="
		M532.52,121.419c0,12.513-10.144,22.658-22.658,22.658c-12.514,0-22.658-10.145-22.658-22.658
		c0-12.515,10.145-22.659,22.658-22.659C522.376,98.76,532.52,108.905,532.52,121.419z"/>
	<path id="path3246_1_" display="inline" fill="#FFFFFF" stroke="#000000" stroke-linecap="round" stroke-linejoin="round" d="
		M532.52,218.887c0,12.514-10.144,22.659-22.658,22.659c-12.514,0-22.658-10.145-22.658-22.659
		c0-12.514,10.145-22.659,22.658-22.659C522.376,196.229,532.52,206.374,532.52,218.887z"/>
	<path id="path3248_1_" display="inline" fill="#FFFFFF" stroke="#000000" stroke-linecap="round" stroke-linejoin="round" d="
		M535.937,170.153c0-12.514,10.146-22.658,22.659-22.658s22.658,10.144,22.658,22.658c0,12.515-10.145,22.659-22.658,22.659
		S535.937,182.667,535.937,170.153z"/>
	<path id="path3250_1_" display="inline" fill="#FFFFFF" stroke="#000000" stroke-linecap="round" stroke-linejoin="round" d="
		M438.469,170.153c0-12.514,10.145-22.658,22.658-22.658s22.66,10.144,22.66,22.658c0,12.515-10.146,22.659-22.66,22.659
		S438.469,182.667,438.469,170.153z"/>
	<path id="rect3214_1_" display="inline" fill="#FFFFFF" stroke="#000000" stroke-linecap="round" stroke-linejoin="round" d="
		M93.379,91.564c-4.226,0-7.652,3.427-7.652,7.652v40.326H45.315c-4.226,0-7.566,3.427-7.566,7.652V190.1
		c0,4.225,3.341,7.651,7.566,7.651h40.412v40.326c0,4.226,3.427,7.653,7.652,7.653h42.905c4.226,0,7.566-3.427,7.566-7.653v-40.326
		h40.411c4.226,0,7.566-3.426,7.566-7.651v-42.905c0-4.226-3.341-7.652-7.566-7.652h-40.411V99.216c0-4.226-3.34-7.652-7.566-7.652
		H93.379z"/>
	<path id="path3289_1_" display="inline" fill="#FFFFFF" stroke="#000000" stroke-linecap="round" stroke-linejoin="round" d="
		M474.224,271.397c0,36.55-29.629,66.178-66.178,66.178c-36.55,0-66.178-29.628-66.178-66.178c0-36.549,29.628-66.177,66.178-66.177
		C444.595,205.22,474.224,234.849,474.224,271.397z"/>
	
		<path id="path3291_1_" display="inline" fill="#FFFFFF" fill-opacity="0.5185" stroke="#000000" stroke-linecap="round" stroke-linejoin="round" d="
		M459.117,271.397c0,28.207-22.866,51.072-51.071,51.072c-28.207,0-51.073-22.865-51.073-51.072
		c0-28.206,22.866-51.071,51.073-51.071C436.251,220.326,459.117,243.191,459.117,271.397z"/>
	<g id="g5204_1_" display="inline">
		<path id="path3322_1_" fill="#FFFFFF" stroke="#000000" stroke-linecap="round" stroke-linejoin="round" d="M140.431,153.208
			c-0.922,0.079-1.768,0.548-2.321,1.29l-9.63,12.21c-0.897,1.166-0.897,2.789,0,3.954l9.63,12.295
			c0.611,0.81,1.565,1.288,2.579,1.29l22.355,0.086c0.869,0.007,1.703-0.335,2.317-0.95c0.614-0.614,0.956-1.449,0.95-2.317v-24.161
			c0.013-1.777-1.405-3.233-3.181-3.268l-22.355-0.43C140.661,153.203,140.546,153.203,140.431,153.208z"/>
		<path id="path3324_1_" fill="#FFFFFF" stroke="#000000" stroke-linecap="round" stroke-linejoin="round" d="M89.146,152.964
			c0.923,0.079,1.768,0.548,2.322,1.289l9.63,12.21c0.896,1.166,0.896,2.789,0,3.955l-9.63,12.295
			c-0.611,0.81-1.566,1.287-2.579,1.29l-22.355,0.087c-0.869,0.006-1.703-0.336-2.318-0.951c-0.614-0.614-0.956-1.449-0.95-2.317
			v-24.161c-0.013-1.776,1.405-3.234,3.182-3.268l22.355-0.429C88.917,152.958,89.032,152.958,89.146,152.964z"/>
		<path id="path3332_1_" fill="#FFFFFF" stroke="#000000" stroke-linecap="round" stroke-linejoin="round" d="M130.228,194.289
			c-0.08-0.922-0.549-1.768-1.29-2.321l-12.21-9.63c-1.166-0.897-2.789-0.897-3.955,0l-12.295,9.63
			c-0.809,0.611-1.287,1.565-1.29,2.579l-0.086,22.355c-0.006,0.869,0.336,1.703,0.95,2.317c0.614,0.614,1.449,0.956,2.317,0.95
			h24.16c1.777,0.013,3.233-1.405,3.268-3.181l0.431-22.355C130.232,194.519,130.232,194.404,130.228,194.289z"/>
		<path id="path3334_1_" fill="#FFFFFF" stroke="#000000" stroke-linecap="round" stroke-linejoin="round" d="M130.472,143.004
			c-0.079,0.922-0.549,1.768-1.29,2.322l-12.21,9.629c-1.167,0.897-2.789,0.897-3.955,0l-12.295-9.629
			c-0.809-0.611-1.287-1.566-1.29-2.579l-0.086-22.355c-0.006-0.869,0.336-1.704,0.95-2.318c0.615-0.614,1.449-0.956,2.318-0.95
			h24.161c1.776-0.013,3.233,1.405,3.267,3.181l0.43,22.355C130.478,142.775,130.478,142.889,130.472,143.004z"/>
	</g>
</g>
<g id="Layer_1_copy_4">
	<g>
		<path fill="#FFFFFF" d="M55.199,431.359c-22.897,0-46.454-11.283-61.478-29.446c-11.983-14.485-16.846-31.558-13.694-48.071
			c3.173-16.626,6.874-42.707,11.159-72.905c5.673-39.981,12.733-89.739,21.363-137c0.006-0.032,0.013-0.065,0.021-0.097
			c6.631-26.233,23.086-48.721,46.368-63.395l0.43-2.803c2.67-17.45,4.281-27.982,5.899-36.343
			c0.943-4.875,4.679-8.875,11.106-11.891c4.379-5.868,14.653-12.691,38.728-12.691c24.075,0,34.348,6.824,38.728,12.691
			c6.427,3.018,10.164,7.018,11.106,11.892c1.616,8.349,3.224,18.858,5.888,36.269l0.482,3.15h116.83c0.519,0,1,0.27,1.27,0.713
			c0.523,0.858,1.377,1.351,2.342,1.351h39.379c0.993,0,1.923-0.517,2.427-1.348c0.27-0.444,0.752-0.715,1.271-0.715h115.743
			l0.505-3.292c2.652-17.336,4.254-27.801,5.866-36.128c0.942-4.874,4.679-8.873,11.105-11.891
			c4.38-5.868,14.652-12.691,38.729-12.691c24.075,0,34.348,6.824,38.728,12.691c6.427,3.019,10.163,7.018,11.106,11.892
			c1.611,8.319,3.21,18.771,5.86,36.086l0.138,0.898c24.854,14.325,43.047,38.179,49.97,65.556c0.009,0.032,0.016,0.065,0.021,0.097
			c8.445,46.255,15.402,95.455,20.992,134.987c4.435,31.363,8.264,58.45,11.526,74.907c3.254,16.423-1.492,33.428-13.366,47.884
			c-15.009,18.273-38.661,29.624-61.725,29.625c-0.004,0-0.006,0-0.01,0c-24.087-0.004-44.123-12.357-56.42-34.785
			c-16.712-30.478-34.713-65.717-47.28-90.75c-12.166,20.585-34.238,33.257-58.268,33.257c-26.164,0-50.09-15.223-61.228-38.866
			h-70.325c-11.138,23.644-35.063,38.866-61.227,38.866c-23.216,0-44.907-12.05-57.257-31.627
			c-12.347,24.565-30.039,59.17-46.46,89.12C99.244,418.999,79.231,431.359,55.199,431.359z"/>
		<path d="M506.772,18.203c20.606,0,32.627,5.216,37.754,12.392c5.985,2.735,9.733,6.404,10.62,10.986
			c1.655,8.545,3.31,19.423,6.097,37.637c24.408,13.848,42.84,37.109,49.89,64.986c15.105,82.722,25.11,172.522,32.523,209.916
			c7.912,39.925-33.397,75.733-73.643,75.733c-21.069,0-41.854-9.824-55.116-34.013c-17.354-31.649-36.103-68.449-48.507-93.199
			c-11.158,20.792-33.098,34.934-58.345,34.934c-26.808,0-49.876-15.948-60.277-38.867h-72.225
			c-10.401,22.919-33.469,38.867-60.276,38.867c-24.543,0-45.95-13.371-57.376-33.217c-12.401,24.713-30.689,60.558-47.646,91.482
			c-13.271,24.206-34.012,34.032-55.047,34.032c-40.137,0-81.339-35.788-73.712-75.753c7.412-38.831,17.418-127.194,32.524-209.916
			c6.697-26.492,23.69-48.809,46.294-62.86c2.986-19.502,4.705-30.89,6.422-39.762c0.887-4.583,4.634-8.252,10.621-10.986
			c5.127-7.176,17.147-12.392,37.754-12.392s32.627,5.216,37.754,12.392c5.986,2.735,9.734,6.404,10.62,10.986
			c1.743,9.002,3.486,20.591,6.554,40.624h118.106c0.75,1.23,2.059,2.063,3.611,2.063h39.379c1.557,0,2.948-0.827,3.698-2.063
			h117.021c3.068-20.033,4.811-31.621,6.554-40.624c0.887-4.583,4.634-8.251,10.62-10.986
			C474.146,23.419,486.166,18.203,506.772,18.203 M506.772,15.229c-24.285,0-34.983,6.914-39.692,12.99
			c-6.679,3.215-10.58,7.518-11.602,12.797c-1.617,8.355-3.221,18.83-5.876,36.185l-0.312,2.03H334.824
			c-1.04,0-2.003,0.543-2.542,1.431c-0.233,0.384-0.688,0.633-1.156,0.633h-39.379c-0.595,0-0.927-0.4-1.072-0.638
			c-0.54-0.885-1.502-1.425-2.539-1.425H172.582l-0.289-1.89c-2.667-17.428-4.277-27.948-5.898-36.325
			c-1.021-5.279-4.923-9.582-11.602-12.797c-4.709-6.076-15.407-12.99-39.692-12.99s-34.982,6.914-39.692,12.99
			c-6.679,3.214-10.58,7.516-11.602,12.797c-1.624,8.39-3.237,18.934-5.91,36.403l-0.327,2.133
			c-23.303,14.884-39.772,37.534-46.443,63.923c-0.016,0.064-0.03,0.129-0.042,0.194c-8.635,47.29-15.698,97.062-21.373,137.058
			c-4.282,30.181-7.98,56.244-11.147,72.835c-3.236,16.957,1.739,34.465,14.009,49.299c15.299,18.494,39.295,29.984,62.624,29.984
			c24.601,0,45.076-12.635,57.654-35.575c15.926-29.047,33.044-62.462,45.329-86.869c12.823,18.72,34.231,30.147,57.085,30.147
			c26.42,0,50.61-15.194,62.163-38.867h68.453c11.552,23.673,35.742,38.867,62.163,38.867c23.654,0,45.452-12.016,58.135-31.698
			c12.502,24.865,29.909,58.873,46.109,88.42c12.571,22.929,33.07,35.557,57.724,35.557c23.505,0,47.603-11.563,62.889-30.177
			c12.158-14.804,17.013-32.245,13.67-49.107c-3.254-16.418-7.081-43.486-11.513-74.827c-5.592-39.546-12.55-88.762-21.002-135.046
			c-0.012-0.065-0.026-0.13-0.042-0.194c-6.964-27.537-25.167-51.558-50.05-66.12l-0.029-0.195
			c-2.652-17.334-4.254-27.796-5.871-36.145c-1.021-5.279-4.923-9.581-11.602-12.796C541.755,22.144,531.057,15.229,506.772,15.229
			L506.772,15.229z"/>
	</g>
</g>
<g id="Layer_1_copy_3">
	<path id="rect3318_2_" fill="#FFFFFF" stroke="#000000" d="M158.407,101h308.391c1.98,0,3.202,0.066,3.202,1.979v181.497
		c0,1.914-1.222,3.523-3.202,3.523H158.407c-1.981,0-4.407-1.609-4.407-3.523V102.979C154,101.066,156.426,101,158.407,101z"/>
	<path id="path3258_2_" fill="#FFFFFF" stroke="#000000" d="M461.168,43.38h91.208l-7.146-11.753
		c-4.687-7.705-16.87-13.424-38.457-13.424c-21.586,0-33.771,5.719-38.456,13.424L461.168,43.38z"/>
	<path id="path3234_2_" fill="#FFFFFF" stroke="#000000" d="M69.496,43.38h91.209l-7.148-11.753
		c-4.686-7.705-16.87-13.424-38.457-13.424c-21.587,0-33.77,5.719-38.456,13.424L69.496,43.38z"/>
	<path id="path3229_2_" fill="#FFFFFF" stroke="#000000" d="M172.467,98.048c-4.675-30.211-6.833-45.318-8.991-56.467
		c-2.158-11.149-21.22-16.904-48.375-16.904c-27.154,0-46.216,5.754-48.375,16.904c-2.158,11.149-4.316,26.255-8.992,56.467"/>
	<path id="path3221_4_" fill="#FFFFFF" stroke="#000000" stroke-linecap="round" stroke-linejoin="round" d="M10.979,169.974
		c0,57.604,46.697,104.302,104.301,104.302c57.604,0,104.302-46.698,104.302-104.302c0-57.604-46.699-104.302-104.302-104.302
		C57.677,65.672,10.979,112.369,10.979,169.974z"/>
	<path id="path3260_2_" fill="#FFFFFF" stroke="#000000" d="M564.139,98.048c-4.677-30.211-6.834-45.318-8.992-56.467
		c-2.157-11.149-21.22-16.904-48.375-16.904c-27.153,0-46.216,5.754-48.373,16.904c-2.159,11.149-4.316,26.255-8.992,56.467"/>
	<path id="path3208_2_" fill="#FFFFFF" stroke="#000000" stroke-linecap="round" stroke-linejoin="round" d="M281.445,271.397
		c0,36.55-29.628,66.178-66.178,66.178c-36.549,0-66.178-29.628-66.178-66.178c0-36.549,29.629-66.177,66.178-66.177
		C251.816,205.22,281.445,234.849,281.445,271.397z"/>
	<g id="path3212_2_">
		<circle opacity="0.5185" fill="#FFFFFF" cx="215.267" cy="271.397" r="51.072"/>
		<circle fill="none" stroke="#000000" stroke-linecap="round" stroke-linejoin="round" cx="215.267" cy="271.397" r="51.072"/>
	</g>
	<path id="path3221_3_" fill="#FFFFFF" stroke="#000000" stroke-linecap="round" stroke-linejoin="round" d="M405.561,169.974
		c0,57.604,46.697,104.302,104.301,104.302s104.303-46.698,104.303-104.302c0-57.604-46.699-104.302-104.303-104.302
		S405.561,112.369,405.561,169.974z"/>
	<path id="path3219_2_" fill="#FFFFFF" stroke="#000000" stroke-linecap="round" stroke-linejoin="round" d="M488.452,92.891
		c-4.226,0-7.651,3.426-7.651,7.652v40.325h-40.413c-4.225,0-7.564,3.426-7.564,7.652v42.904c0,4.227,3.34,7.653,7.564,7.653h40.413
		v40.326c0,4.226,3.426,7.651,7.651,7.651h42.903c4.228,0,7.567-3.425,7.567-7.651v-40.326h40.412c4.226,0,7.567-3.426,7.567-7.653
		v-42.904c0-4.226-3.342-7.652-7.567-7.652h-40.412v-40.325c0-4.226-3.34-7.652-7.567-7.652H488.452z"/>
	<path id="rect3214_2_" fill="#FFFFFF" stroke="#000000" stroke-linecap="round" stroke-linejoin="round" d="M93.379,91.564
		c-4.226,0-7.652,3.427-7.652,7.652v40.326H45.315c-4.226,0-7.566,3.427-7.566,7.652V190.1c0,4.225,3.341,7.651,7.566,7.651h40.412
		v40.326c0,4.226,3.427,7.653,7.652,7.653h42.905c4.226,0,7.566-3.427,7.566-7.653v-40.326h40.411c4.226,0,7.566-3.426,7.566-7.651
		v-42.905c0-4.226-3.341-7.652-7.566-7.652h-40.411V99.216c0-4.226-3.34-7.652-7.566-7.652H93.379z"/>
	<path id="path3289_2_" fill="#FFFFFF" stroke="#000000" stroke-linecap="round" stroke-linejoin="round" d="M474.224,271.397
		c0,36.55-29.629,66.178-66.178,66.178c-36.55,0-66.178-29.628-66.178-66.178c0-36.549,29.628-66.177,66.178-66.177
		C444.595,205.22,474.224,234.849,474.224,271.397z"/>
	<g id="path3291_2_">
		<circle opacity="0.5185" fill="#FFFFFF" cx="408.045" cy="271.397" r="51.072"/>
		<circle fill="none" stroke="#000000" stroke-linecap="round" stroke-linejoin="round" cx="408.045" cy="271.397" r="51.072"/>
	</g>
</g>
<g id="Layer_6" display="none">
	<g id="rect3307" display="inline">
		<path fill="#FFFFFF" d="M472.604,158.677v22.953h-22.951v-22.953H472.604 M474.604,156.677h-26.951v26.953h26.951V156.677
			L474.604,156.677z"/>
	</g>
	<g id="path3309" display="inline">
		<path fill="#FFFFFF" d="M509.861,108.828l11.538,19.951h-23.076L509.861,108.828 M509.861,104.833l-15.005,25.946h30.01
			L509.861,104.833L509.861,104.833z"/>
	</g>
	<g id="path3311" display="inline">
		<path fill="#FFFFFF" d="M558.596,155.829c7.799,0,14.144,6.345,14.144,14.144s-6.345,14.144-14.144,14.144
			s-14.145-6.345-14.145-14.144S550.797,155.829,558.596,155.829 M558.596,153.829c-8.916,0-16.145,7.228-16.145,16.144
			s7.229,16.144,16.145,16.144s16.144-7.228,16.144-16.144S567.512,153.829,558.596,153.829L558.596,153.829z"/>
	</g>
	<path id="path3313" display="inline" fill="none" stroke="#FFFFFF" stroke-width="2" d="M497.706,206.732l24.31,24.31
		 M522.016,206.732l-24.31,24.31"/>
</g>
</svg>
