<?xml version="1.0" encoding="utf-8"?>
<!DOCTYPE svg PUBLIC "-//W3C//DTD SVG 1.1//EN" "http://www.w3.org/Graphics/SVG/1.1/DTD/svg11.dtd">
<svg version="1.1" xmlns="http://www.w3.org/2000/svg" xmlns:xlink="http://www.w3.org/1999/xlink">
	<mask id="dpadUpMask" maskUnits="userSpaceOnUse">
		<path fill="white" d="M0,22.338V2.481C0,1.113,1.123,0,2.501,0h25C28.879,0,30,1.113,30,2.481v19.856c0,1.247-0.768,2.835-1.748,3.613
	l-10.877,9.433c-1.033,0.821-2.714,0.821-3.748,0L1.75,25.952C0.768,25.173,0,23.585,0,22.338z"/>
	</mask>
	<mask id="dpadDownMask" maskUnits="userSpaceOnUse">
		<path fill="white" d="M30,13.663v19.856C30,34.887,28.879,36,27.5,36h-25C1.123,36,0,34.887,0,33.519V13.663c0-1.247,0.769-2.835,1.749-3.613
	l10.877-9.433c1.033-0.821,2.715-0.821,3.748,0l11.877,9.432C29.232,10.828,30,12.416,30,13.663z"/>
	</mask>
	<mask id="dpadLeftMask" maskUnits="userSpaceOnUse">
		<path fill="white" d="M22.469,30H2.612C1.244,30,0,28.879,0,27.5v-25C0,1.122,1.244,0,2.612,0h19.856c1.247,0,2.835,0.768,3.613,1.749
	l9.433,10.877c0.821,1.033,0.821,2.715,0,3.748l-9.432,11.877C25.304,29.232,23.716,30,22.469,30z"/>
	</mask>
	<mask id="dpadRightMask" maskUnits="userSpaceOnUse">
		<path fill="white" d="M13.662,0h19.856C34.887,0,36,1.121,36,2.5v25c0,1.378-1.113,2.5-2.481,2.5H13.662c-1.247,0-2.835-0.769-3.613-1.749
	L0.616,17.374c-0.821-1.033-0.821-2.715,0-3.748l9.432-11.877C10.827,0.768,12.415,0,13.662,0z"/>
	</mask>
	<mask id="startMask" maskUnits="userSpaceOnUse">
		<path fill="white" d="M27.694,9.335L4.316,18.506C2.091,19.379,0,16.582,0,14.191V4.479c0-2.391,2.091-5.188,4.316-4.316
	L27.694,9.335z"/>
	</mask>
	<mask id="lb1Mask" maskUnits="userSpaceOnUse">
		<path fill="white" d="M77.411,12.602C71.604,4.476,58.052,0,39.249,0S6.895,4.475,1.088,12.602L0,14.125l1.703-0.778
	c8.409-3.841,21.392-5.872,37.545-5.872c16.155,0,29.14,2.031,37.548,5.873l1.703,0.777L77.411,12.602z"/>
	</mask>
	<mask id="rb1Mask" maskUnits="userSpaceOnUse">
		<path fill="white" d="M77.411,12.602C71.604,4.476,58.052,0,39.249,0S6.895,4.475,1.088,12.602L0,14.125l1.703-0.778
	c8.409-3.841,21.392-5.872,37.545-5.872c16.155,0,29.14,2.031,37.548,5.873l1.703,0.777L77.411,12.602z"/>
	</mask>
</svg>