<?xml version="1.0" encoding="utf-8"?>
<!-- Generator: Adobe Illustrator 15.0.2, SVG Export Plug-In . SVG Version: 6.00 Build 0)  -->
<!DOCTYPE svg PUBLIC "-//W3C//DTD SVG 1.1//EN" "http://www.w3.org/Graphics/SVG/1.1/DTD/svg11.dtd">
<svg version="1.1" id="Layer_1" xmlns="http://www.w3.org/2000/svg" xmlns:xlink="http://www.w3.org/1999/xlink" x="0px" y="0px"
	 width="670px" height="462px" viewBox="0 0 670 462" enable-background="new 0 0 670 462" xml:space="preserve">
<g>
	<path fill="#FFFFFF" d="M610.657,459.756c-25.464-0.001-54.722-12.996-82.384-36.59c-6.471-5.52-12.501-10.986-18.334-16.273
		c-38.646-35.031-69.171-62.701-174.819-62.701c-105.65,0-136.175,27.671-174.822,62.703c-5.832,5.286-11.862,10.753-18.332,16.271
		c-27.664,23.595-56.921,36.59-82.384,36.59c-13.246,0-24.947-3.486-33.837-10.082C4.609,433.992-1.9,383.059,5.847,293.961
		c6.994-80.434,50.6-207.091,58.741-224.566c6.474-13.896,11.959-20.609,13.342-22.189c0.558-3.747,2.247-13.898,4.467-16.118
		c0.152-0.152,16.114-15.412,49.475-23.801c14.366-3.612,26.859-4.371,34.81-4.371c9.984,0,21.653,1.367,23.095,3.575
		c2.112,3.236,6.714,9.128,10.564,10.688c6.622,2.681,11.899,5.516,20.641,10.213c4.978,2.674,11.172,6.003,19.329,10.213
		c20.963,10.819,50.637,12.936,94.809,12.936c44.171,0,73.845-2.117,94.809-12.936c12.768-6.59,20.757-10.122,27.176-12.959
		c4.749-2.099,8.499-3.757,12.651-5.972c2.747-1.465,8.826-9.302,10.706-12.183c1.442-2.209,13.111-3.576,23.096-3.576
		c7.951,0,20.444,0.758,34.812,4.371c33.36,8.39,49.32,23.649,49.473,23.801c2.221,2.22,3.91,12.37,4.467,16.118
		c1.384,1.581,6.87,8.294,13.343,22.189c8.143,17.474,51.747,144.127,58.741,224.566c7.748,89.097,1.239,140.03-19.898,155.713
		c-8.89,6.596-20.591,10.082-33.834,10.082C610.658,459.756,610.659,459.756,610.657,459.756z"/>
	<path fill="#13110C" d="M503.558,4.417c9.5,0,21.436,1.054,34.445,4.325c30.553,7.684,46.634,21.263,48.778,23.407
		c2.145,2.145,4.109,15.724,4.109,15.724s6.076,6.433,13.401,22.156c7.326,15.724,51.46,141.871,58.606,224.062
		c7.147,82.192,2.858,137.94-19.298,154.378c-8.276,6.141-19.541,9.787-32.943,9.787c-22.478,0-50.964-10.263-81.41-36.231
		c-48.602-41.453-71.636-79.333-194.127-79.333s-145.527,37.88-194.127,79.333c-30.449,25.972-58.931,36.231-81.41,36.231
		c-13.4,0-24.668-3.647-32.943-9.787C4.483,432.031,0.195,376.283,7.342,294.091c7.147-82.192,51.281-208.339,58.606-224.062
		s13.401-22.156,13.401-22.156s1.965-13.579,4.109-15.724c2.145-2.144,18.225-15.723,48.779-23.407
		c13.011-3.271,24.943-4.325,34.445-4.325c12.81,0,21.199,1.916,21.838,2.896c1.475,2.259,6.553,9.352,11.257,11.257
		c10.37,4.198,17.69,8.934,39.845,20.37c22.156,11.435,53.604,13.103,95.497,13.103c41.894,0,73.34-1.668,95.496-13.103
		c22.156-11.436,29.974-13.675,39.846-18.94c3.35-1.787,9.782-10.428,11.256-12.687C482.357,6.333,490.744,4.417,503.558,4.417
		 M503.558,1.417c-7.385,0-12.753,0.608-15.957,1.118c-7.081,1.127-7.903,2.385-8.395,3.137c-1.86,2.852-7.776,10.411-10.156,11.681
		c-4.104,2.188-7.831,3.836-12.552,5.923c-6.438,2.846-14.45,6.387-27.258,12.998c-20.692,10.68-50.18,12.769-94.12,12.769
		c-43.941,0-73.429-2.089-94.121-12.769c-8.146-4.205-14.334-7.53-19.307-10.202c-8.787-4.721-14.091-7.571-20.789-10.283
		c-3.512-1.422-7.993-7.24-9.871-10.117c-0.491-0.752-1.312-2.01-8.396-3.138c-3.203-0.51-8.572-1.118-15.955-1.118
		c-8.036,0-20.661,0.766-35.176,4.416c-28.462,7.158-45.865,19.892-50.169,24.195c-1.039,1.04-3.026,4.57-4.827,16.532
		c-1.817,2.15-7.136,9.012-13.281,22.202c-3.733,8.012-16.793,44.113-29.53,87.528C22.426,194.715,8.185,249.77,4.353,293.831
		c-3.769,43.344-4.205,76.853-1.333,102.441c3.165,28.193,10.306,46.055,21.831,54.605c9.151,6.789,21.16,10.378,34.731,10.378
		c12.292,0,25.375-2.898,38.885-8.613c14.813-6.268,29.775-15.801,44.472-28.336c6.487-5.532,12.526-11.007,18.366-16.301
		c38.407-34.815,68.743-62.314,173.814-62.314c105.07,0,135.406,27.499,173.812,62.313c5.841,5.294,11.88,10.769,18.367,16.302
		c14.695,12.534,29.657,22.067,44.472,28.335c13.511,5.716,26.594,8.614,38.886,8.614c13.57,0,25.58-3.589,34.73-10.378
		c11.526-8.551,18.667-26.412,21.832-54.605c2.872-25.59,2.437-59.099-1.332-102.441c-3.832-44.062-18.073-99.116-29.347-137.542
		c-12.736-43.417-25.797-79.517-29.529-87.528c-6.146-13.19-11.466-20.053-13.282-22.203c-0.836-5.528-2.477-14.182-4.827-16.532
		c-4.304-4.303-21.706-17.037-50.168-24.194C524.219,2.183,511.593,1.417,503.558,1.417L503.558,1.417z"/>
</g>
<circle fill="none" stroke="#13110C" stroke-width="2" stroke-linejoin="round" stroke-miterlimit="10" cx="231.047" cy="244.776" r="73.139"/>
<circle fill="none" stroke="#13110C" stroke-width="2" stroke-linejoin="round" stroke-miterlimit="10" cx="231.047" cy="245.133" r="55.033"/>
<circle fill="none" stroke="#13110C" stroke-width="2" stroke-linejoin="round" stroke-miterlimit="10" cx="430.451" cy="249.063" r="67.897"/>
<circle fill="#FFFFFF" stroke="#13110C" stroke-width="2" stroke-linejoin="round" stroke-miterlimit="10" cx="430.452" cy="249.063" r="45.742"/>
<circle display="none" fill="#13110C" cx="430.452" cy="220.833" r="2.501"/>
<circle display="none" fill="#13110C" cx="430.452" cy="274.437" r="2.501"/>
<circle display="none" fill="#13110C" cx="457.254" cy="247.634" r="2.501"/>
<circle display="none" fill="#13110C" cx="403.649" cy="247.634" r="2.501"/>
<circle fill="none" stroke="#13110C" stroke-width="2" stroke-linejoin="round" stroke-miterlimit="10" cx="133.131" cy="126.371" r="67.898"/>
<circle fill="#FFFFFF" stroke="#13110C" stroke-width="2" stroke-linejoin="round" stroke-miterlimit="10" cx="133.131" cy="126.371" r="45.742"/>
<circle display="none" fill="#13110C" cx="133.131" cy="98.14" r="2.502"/>
<circle display="none" fill="#13110C" cx="133.131" cy="151.743" r="2.502"/>
<circle display="none" fill="#13110C" cx="159.933" cy="124.942" r="2.502"/>
<circle display="none" fill="#13110C" cx="106.33" cy="124.942" r="2.502"/>
<path fill="none" stroke="#13110C" stroke-width="2" stroke-linejoin="round" stroke-miterlimit="10" d="M261.099,264.775
	c7.669-0.82,15.679-1.351,21.846-1.68c2.024-5.732,3.136-11.896,3.136-18.32c0-5.312-0.768-10.442-2.172-15.303
	c-6.282-0.324-14.735-0.867-22.809-1.729c-15.607-1.668-13.343-23.706-12.985-35.033c0.004-0.089,0.018-0.162,0.022-0.248
	c-5.38-1.757-11.12-2.719-17.089-2.719c-6.257,0-12.263,1.058-17.868,2.981c0.36,11.333,2.614,33.351-12.983,35.019
	c-7.731,0.824-15.809,1.359-21.998,1.686c-1.412,4.874-2.184,10.019-2.184,15.347c0,6.441,1.117,12.62,3.15,18.364
	c6.048,0.33,13.697,0.852,21.031,1.636c14.346,1.533,13.589,20.273,13.098,32.09c5.571,1.898,11.539,2.943,17.753,2.943
	c5.922,0,11.62-0.946,16.965-2.678C247.519,285.333,246.645,266.32,261.099,264.775z"/>
<path display="none" fill="none" stroke="#13110C" stroke-width="2" stroke-linejoin="round" stroke-miterlimit="10" d="
	M278.933,131.315c0,7.203-5.841,13.043-13.043,13.043h-6.433c-7.203,0-13.043-5.84-13.043-13.043l0,0
	c0-7.203,5.84-13.043,13.043-13.043h6.433C273.092,118.272,278.933,124.112,278.933,131.315L278.933,131.315z"/>
<path display="none" fill="none" stroke="#13110C" stroke-width="2" stroke-linejoin="round" stroke-miterlimit="10" d="
	M423.899,131.315c0,7.203-5.839,13.043-13.044,13.043h-6.432c-7.204,0-13.044-5.84-13.044-13.043l0,0
	c0-7.203,5.84-13.043,13.044-13.043h6.432C418.061,118.272,423.899,124.112,423.899,131.315L423.899,131.315z"/>
<circle display="none" fill="#6B6866" stroke="#13110C" stroke-width="2" stroke-linejoin="round" stroke-miterlimit="10" cx="480.125" cy="127.92" r="23.228"/>
<circle display="none" fill="#6B6866" stroke="#13110C" stroke-width="2" stroke-linejoin="round" stroke-miterlimit="10" cx="585.416" cy="127.92" r="23.229"/>
<circle display="none" fill="#6B6866" stroke="#13110C" stroke-width="2" stroke-linejoin="round" stroke-miterlimit="10" cx="532.771" cy="75.275" r="23.228"/>
<circle display="none" fill="#6B6866" stroke="#13110C" stroke-width="2" stroke-linejoin="round" stroke-miterlimit="10" cx="532.771" cy="180.566" r="23.228"/>
<circle fill="none" stroke="#13110C" stroke-width="2" stroke-linejoin="round" stroke-miterlimit="10" cx="335.12" cy="131.315" r="43.241"/>
<circle display="none" fill="none" stroke="#13110C" stroke-width="2" stroke-linejoin="round" stroke-miterlimit="10" cx="335.119" cy="131.315" r="36.094"/>
<path fill="none" stroke="#13110C" stroke-linejoin="round" stroke-miterlimit="10" d="M77.741,48.708
	c9.291-12.33,47.927-29.119,65.932-32.461c18.285-3.395,43.419-4.11,58.785,2.68"/>
<path fill="none" stroke="#13110C" stroke-linejoin="round" stroke-miterlimit="10" d="M593.328,49.853
	c-9.291-12.328-47.928-29.117-65.933-32.458c-18.285-3.395-43.419-4.11-58.785,2.68"/>
</svg>
