<?xml version="1.0" encoding="utf-8"?>
<!DOCTYPE svg PUBLIC "-//W3C//DTD SVG 1.1//EN" "http://www.w3.org/Graphics/SVG/1.1/DTD/svg11.dtd">
<svg version="1.1" xmlns="http://www.w3.org/2000/svg" xmlns:xlink="http://www.w3.org/1999/xlink">
	<mask id="lbMask" maskUnits="userSpaceOnUse">
		<path fill="white" d="M124.717,16.01c-15.366-6.79-40.5-6.075-58.785-2.68C47.927,16.672,9.291,33.461,0,45.791l0.189-1.501c0.558-3.747,2.247-13.898,4.467-16.118C4.809,28.02,20.771,12.76,54.131,4.371C68.497,0.758,80.99,0,88.941,0c9.984,0,21.653,1.367,23.095,3.575c2.112,3.236,6.714,9.128,10.564,10.688L124.717,16.01z"/>
	</mask>
	<mask id="rbMask" maskUnits="userSpaceOnUse">
		<path fill="white" d="M124.718,46.936c-9.291-12.328-47.928-29.116-65.933-32.458C40.5,11.083,15.366,10.368,0,17.158l1.146-1.399c2.747-1.465,8.826-9.302,10.706-12.183C13.294,1.367,24.963,0,34.947,0c7.951,0,20.444,0.758,34.812,4.371c33.36,8.39,49.32,23.649,49.473,23.801c2.221,2.22,3.91,12.369,4.467,16.117L124.718,46.936z"/>
	</mask>
</svg>